<?xml version="1.0" encoding="UTF-8"?>
<svg id="Capa_1" xmlns="http://www.w3.org/2000/svg" xmlns:xlink="http://www.w3.org/1999/xlink" viewBox="0 0 212.13 34.42">
  <defs>
    <style>
      .cls-1 {
        fill: url(#Degradado_sin_nombre_6);
      }

      .cls-2 {
        fill: url(#Degradado_sin_nombre_5);
      }

      .cls-3 {
        fill: url(#Degradado_sin_nombre_4);
      }

      .cls-4 {
        fill: url(#Degradado_sin_nombre_2);
      }

      .cls-5 {
        fill: url(#Degradado_sin_nombre_7);
      }

      .cls-6 {
        fill: url(#Degradado_sin_nombre_3);
      }

      .cls-7 {
        fill: url(#Degradado_sin_nombre);
      }
    </style>
    <linearGradient id="Degradado_sin_nombre" data-name="Degradado sin nombre" x1="16.44" y1="36.42" x2="16.44" y2="2" gradientTransform="translate(0 36.42) scale(1 -1)" gradientUnits="userSpaceOnUse">
      <stop offset="0" stop-color="#b60277"/>
      <stop offset="1" stop-color="#f2029e"/>
    </linearGradient>
    <linearGradient id="Degradado_sin_nombre_2" data-name="Degradado sin nombre 2" x1="49.57" y1="36.42" x2="49.57" y2="2" gradientTransform="translate(0 36.42) scale(1 -1)" gradientUnits="userSpaceOnUse">
      <stop offset="0" stop-color="#b60277"/>
      <stop offset="1" stop-color="#f2029e"/>
    </linearGradient>
    <linearGradient id="Degradado_sin_nombre_3" data-name="Degradado sin nombre 3" x1="79.33" y1="36.42" x2="79.33" y2="2" gradientTransform="translate(0 36.42) scale(1 -1)" gradientUnits="userSpaceOnUse">
      <stop offset="0" stop-color="#b60277"/>
      <stop offset="1" stop-color="#f2029e"/>
    </linearGradient>
    <linearGradient id="Degradado_sin_nombre_4" data-name="Degradado sin nombre 4" x1="110.95" y1="36.42" x2="110.95" y2="2" gradientTransform="translate(0 36.42) scale(1 -1)" gradientUnits="userSpaceOnUse">
      <stop offset="0" stop-color="#b60277"/>
      <stop offset="1" stop-color="#f2029e"/>
    </linearGradient>
    <linearGradient id="Degradado_sin_nombre_5" data-name="Degradado sin nombre 5" x1="132.27" y1="36.42" x2="132.27" y2="2" gradientTransform="translate(0 36.42) scale(1 -1)" gradientUnits="userSpaceOnUse">
      <stop offset="0" stop-color="#b60277"/>
      <stop offset="1" stop-color="#f2029e"/>
    </linearGradient>
    <linearGradient id="Degradado_sin_nombre_6" data-name="Degradado sin nombre 6" x1="156.73" y1="36.42" x2="156.73" y2="2" gradientTransform="translate(0 36.42) scale(1 -1)" gradientUnits="userSpaceOnUse">
      <stop offset="0" stop-color="#b60277"/>
      <stop offset="1" stop-color="#f2029e"/>
    </linearGradient>
    <linearGradient id="Degradado_sin_nombre_7" data-name="Degradado sin nombre 7" x1="194.77" y1="36.42" x2="194.77" y2="2" gradientTransform="translate(0 36.42) scale(1 -1)" gradientUnits="userSpaceOnUse">
      <stop offset="0" stop-color="#b60277"/>
      <stop offset="1" stop-color="#f2029e"/>
    </linearGradient>
  </defs>
  <path class="cls-7" d="M0,33.89l12.05-17.42L.62,0h8.98l7.1,10.9L23.71,0h8.59l-11.14,16.27,11.71,17.62h-8.83l-7.58-12.05-7.87,12.05H0Z"/>
  <path class="cls-4" d="M36.78,33.89V0h14.16c6.43,0,11.42,4.13,11.42,10.75s-4.99,10.8-11.42,10.8h-6.62v12.34h-7.54ZM49.83,5.86h-5.52v9.84h5.52c2.83,0,5.04-1.82,5.04-4.94s-2.21-4.9-5.04-4.9Z"/>
  <path class="cls-6" d="M67.16,33.89V0h24.1v6.48h-16.56v6.96h15.12v6.29h-15.12v7.63h16.8v6.53h-24.34Z"/>
  <path class="cls-3" d="M97.27,33.89V0h13.82c6.72,0,11.33,4.13,11.33,9.98,0,5.14-3.36,8.74-8.64,9.7l10.85,14.21h-8.93l-10.08-13.97h-.82v13.97h-7.54ZM110.23,5.86h-5.42v8.5h5.38c3.02,0,4.7-1.63,4.7-4.27,0-2.45-1.68-4.22-4.66-4.22Z"/>
  <path class="cls-2" d="M128.5,33.89V0h7.54v33.89h-7.54Z"/>
  <path class="cls-1" d="M156.77,34.42c-8.3,0-14.16-5.86-14.16-13.87V0h7.58v20.98c0,4.08,2.83,6.58,6.58,6.58s6.48-2.5,6.48-6.53V0h7.58v20.59c0,8.02-5.71,13.82-14.06,13.82Z"/>
  <path class="cls-5" d="M177.42,33.89V0h5.38l11.95,18.67L206.7,0h5.42v33.89h-7.54V15.12l-7.34,11.47h-4.99l-7.34-11.47v18.77h-7.49Z"/>
</svg>